<svg id="Component_6_25" data-name="Component 6 – 25" xmlns="http://www.w3.org/2000/svg" xmlns:xlink="http://www.w3.org/1999/xlink" width="206.52" height="67.94" viewBox="0 0 206.52 67.94">
  <defs>
    <clipPath id="clip-path">
      <rect id="Rectangle_3" data-name="Rectangle 3" width="206.52" height="67.94" transform="translate(204 57)" fill="#7d7d7d"/>
    </clipPath>
    <clipPath id="clip-path-2">
      <rect id="Rectangle_4" data-name="Rectangle 4" width="192.39" height="53.173" fill="none"/>
    </clipPath>
  </defs>
  <g id="Mask_Group_1" data-name="Mask Group 1" transform="translate(-206.5 -57)" clip-path="url(#clip-path)">
    <g id="Artwork_1" data-name="Artwork 1" transform="translate(310.5 97)">
      <g id="Group_1" data-name="Group 1" transform="translate(-96.195 -26.587)" clip-path="url(#clip-path-2)">
        <path id="Path_1" data-name="Path 1" d="M41.126,21.925H56.538v8.736H41.126ZM142.452,11.511c4.464,4.654,7.516,10.491,6.371,17.244-2.48,14.84-18.388,8.507-24.225,15.794-3.586,4.464,1.717,7.248,1.717,8.05,0,.153-.229.229-.763.229h0a23.92,23.92,0,0,1-19.8-37.349A67.689,67.689,0,0,1,99.3,7.085C97.282,4.071,95.756,1.4,95.756.714s.916-.458,2.4-.42c4.883,0,15.947,1.679,21.4,5.417l.725-.191a22.243,22.243,0,0,1,2.632-.42c-.649-2.67-.992-4.807-.8-5.341s.153-.114.343-.114c2.175,0,14.421,6.028,19.991,11.826M130.74,26.961l-2.785-1.793h0a4.311,4.311,0,0,1-1.3,1.907l-.229.191h-.076l-.114.076h-.076l-.305.153h-.114l-.42.153-.42.114-.382.076h-.649a4.273,4.273,0,0,1-4.273-4.273,3.967,3.967,0,0,1,.076-.8l.076-.267.076-.305.076-.191v-.114h0l.191-.381.076-.114.229-.343.153-.191.305-.343h0l-2.823-1.755a7.516,7.516,0,1,0,12.628,7.973m8.813,8.088-.61-.42-.114.114a1.984,1.984,0,0,1-1.259.763.763.763,0,0,1-.42-.153,2.158,2.158,0,0,1-.649-1.831,8.735,8.735,0,0,0,1.908-1.221l.687-.572-3.815-.572-.153.191a1.907,1.907,0,0,0-.076,1.793,6.716,6.716,0,0,1-3.891,1.793h-.076a1.488,1.488,0,0,1-1.145-.42,1.793,1.793,0,0,1-.343-1.335V32.8l-.687-.191-.076.153a3.2,3.2,0,0,0-.038,2.709c.649.992,1.221.992,2.327.992a8.965,8.965,0,0,0,1.526-.153,4.807,4.807,0,0,0,2.4-1.259,1.755,1.755,0,0,0,.382.687,2.365,2.365,0,0,0,1.755.954c1.259,0,2.06-1.335,2.289-1.755Zm3.09-14.573a25.333,25.333,0,0,0-2.442-2.9l-.191.153c.572,1.106,1.106,2.213,1.6,3.357l.343.839.343.839c.229.572.458,1.144.649,1.717a18.115,18.115,0,0,1,.5,1.755l.114.458a11.791,11.791,0,0,0-.8,1.45,9.346,9.346,0,0,0-.839,2.022h.038a4.5,4.5,0,0,0,2.136-.687l.458-.305a12.169,12.169,0,0,0,1.373,2.213h.267a6.561,6.561,0,0,0,.229-.954l.076-.5v-.5c0-.153,0-.649-.038-.992a7.121,7.121,0,0,0-.153-.954v-.191a5.722,5.722,0,0,0,.5-1.068,4.807,4.807,0,0,0,.267-2.022v-.267h-.038a7.745,7.745,0,0,0-1.64,1.106l-.61-1.106c-.305-.572-.649-1.106-.954-1.64l-.534-.8ZM17.244,5.9,0,45.807H11.712l9.5-24.607,2.861,7.248H22.165l-3.586,9.385h9.27l3.243,7.973H43.033L25.637,5.9Zm78.932,4.12a28.167,28.167,0,0,1-2.251-4.158H85.8L72.866,19.675V5.9H62.261v39.9H72.866V29.975L86.41,45.807h14.764L82.022,24.558Zm38.913,34.793a6.6,6.6,0,0,0-3.052.725c-2.365,1.145-3.7,3.319-2.976,4.845a2.883,2.883,0,0,0,2.594,1.373,6.638,6.638,0,0,0,3.052-.725c2.365-1.144,3.7-3.319,2.976-4.845a2.883,2.883,0,0,0-2.594-1.373M181.784,5.9V29.174L167.554,5.9H154.469v39.9h10.644V21.887l14.65,23.92h12.666V5.9ZM141.231,41.8l-.458.114a1.144,1.144,0,0,0,.572,2.213l.458-.114a1.144,1.144,0,0,0-.572-2.213" transform="translate(0 0.316)" fill="#fff"/>
      </g>
    </g>
  </g>
</svg>
