<svg xmlns="http://www.w3.org/2000/svg" xmlns:xlink="http://www.w3.org/1999/xlink" width="206.53" height="67.938" viewBox="0 0 206.53 67.938">
  <defs>
    <filter id="Path_1788" x="0" y="6.177" width="206.53" height="60.664" filterUnits="userSpaceOnUse">
      <feOffset input="SourceAlpha"/>
      <feGaussianBlur stdDeviation="2.5" result="blur"/>
      <feFlood flood-color="#00d6f5" flood-opacity="0.82"/>
      <feComposite operator="in" in2="blur"/>
      <feComposite in="SourceGraphic"/>
    </filter>
    <filter id="Path_1789" x="95.348" y="0" width="68.052" height="67.938" filterUnits="userSpaceOnUse">
      <feOffset input="SourceAlpha"/>
      <feGaussianBlur stdDeviation="2.5" result="blur-2"/>
      <feFlood flood-color="#00d6f5" flood-opacity="0.82"/>
      <feComposite operator="in" in2="blur-2"/>
      <feComposite in="SourceGraphic"/>
    </filter>
  </defs>
  <g id="Group_373" data-name="Group 373" transform="translate(-99.338 -96.804)">
    <g transform="matrix(1, 0, 0, 1, 100.34, 102.8)" filter="url(#Path_1788)">
      <path id="Path_1788-2" data-name="Path 1788" d="M148.778,142.53h15.337v8.684H148.778Zm-23.767-15.962L107.838,166.3h11.668l9.448-24.469,2.86,7.229h-1.887l-3.6,9.318h9.221l3.222,7.921h11.873l-17.284-39.73Zm78.571,4.124a34.789,34.789,0,0,1-2.251-4.124h-8.1l-12.838,13.724V126.568H169.809V166.3h10.584V150.556L193.886,166.3h14.692l-19.1-21.161Zm38.741,34.64a6.567,6.567,0,0,0-3.039.7c-2.374,1.154-3.7,3.319-2.961,4.835a2.82,2.82,0,0,0,2.6,1.358,6.6,6.6,0,0,0,3.039-.7c2.374-1.155,3.7-3.32,2.961-4.836A2.822,2.822,0,0,0,242.323,165.333Zm46.461-38.764v23.153l-14.165-23.153H261.593V166.3h10.585V142.5L286.766,166.3h12.6V126.569Zm-40.35,35.736a1.156,1.156,0,1,0,1.1.648A1.148,1.148,0,0,0,248.433,162.305Z" transform="translate(-100.34 -112.89)" fill="#fff"/>
    </g>
    <g transform="matrix(1, 0, 0, 1, 100.34, 102.8)" filter="url(#Path_1789)">
      <path id="Path_1789-2" data-name="Path 1789" d="M405.36,122.085c-6.01-6.257-19.842-12.79-20.233-11.65-.177.515.173,2.635.815,5.306a22.143,22.143,0,0,0-3.334.609c-7.072-4.874-23.707-6.2-23.707-4.964,0,1.325,5.977,10.546,9.916,14.679a23.806,23.806,0,0,0-.747,25.538,9.682,9.682,0,0,1,1.971-7.172s-.382,4.011,3.324,10.475c3.167,5.523,9.923,7.562,13.951,8.3q.61.031,1.229.032c.058,0,.1,0,.156,0-.889-.076-2.013-.638-3.156-2.439a6.771,6.771,0,0,1,.058-7.478s-.226,2.919.844,3.892a5.463,5.463,0,0,1,1.147-2.228c1.647-2.047,4.1-3.012,6.816-3.677,6.89-1.685,15.528-1.453,17.307-12.04C412.844,132.533,409.81,126.716,405.36,122.085Zm-18.475,19.747a7.5,7.5,0,0,1-5.759-12.313l2.7,1.692a4.579,4.579,0,1,0,7.653,4.811c.648.412,1.681,1.071,2.219,1.422A7.509,7.509,0,0,1,386.885,141.832Zm9.045,5.076c-3.489.024-1.728-6.142-1.728-6.142.281.6,1.006,2.1,1.006,2.1s1.363-.777,2.165-1.276c1.524-.054,5.1,1.5,6.214.066C403.587,141.652,400.176,146.88,395.93,146.908Zm11.949-6.237c-.041.022-.081.04-.121.06a8.734,8.734,0,0,1-1.581,2.682s.055-.8.186-2.467c-1.633-.278-2.775-2.271-2.775-2.271a16.307,16.307,0,0,1,2.934-2.4,38.5,38.5,0,0,0-.546-5.428c-.075-.549,1.231,1.451,1.872,4.578.625-.379,1.322-.776,2.106-1.184C409.953,134.238,411.637,138.618,407.878,140.671Z" transform="translate(-256.05 -102.8)" fill="#fff"/>
    </g>
  </g>
</svg>
